<?xml version="1.0" encoding="UTF-8" standalone="no"?>
<!-- Created with Inkscape (http://www.inkscape.org/) -->

<svg
   width="210mm"
   height="297mm"
   viewBox="0 0 210 297"
   version="1.1"
   id="svg1"
   inkscape:version="1.3.2 (091e20e, 2023-11-25, custom)"
   sodipodi:docname="logo2.svg"
   xmlns:inkscape="http://www.inkscape.org/namespaces/inkscape"
   xmlns:sodipodi="http://sodipodi.sourceforge.net/DTD/sodipodi-0.dtd"
   xmlns="http://www.w3.org/2000/svg"
   xmlns:svg="http://www.w3.org/2000/svg">
  <sodipodi:namedview
     id="namedview1"
     pagecolor="#ffffff"
     bordercolor="#000000"
     borderopacity="0.25"
     inkscape:showpageshadow="2"
     inkscape:pageopacity="0.0"
     inkscape:pagecheckerboard="0"
     inkscape:deskcolor="#d1d1d1"
     inkscape:document-units="mm"
     showguides="false"
     inkscape:zoom="0.51717104"
     inkscape:cx="314.2094"
     inkscape:cy="793.74128"
     inkscape:window-width="1920"
     inkscape:window-height="1017"
     inkscape:window-x="-8"
     inkscape:window-y="-8"
     inkscape:window-maximized="1"
     inkscape:current-layer="layer1" />
  <defs
     id="defs1">
    <inkscape:path-effect
       effect="powerstroke"
       id="path-effect5"
       is_visible="true"
       lpeversion="1.3"
       scale_width="1"
       interpolator_type="CubicBezierJohan"
       interpolator_beta="0.2"
       start_linecap_type="zerowidth"
       end_linecap_type="zerowidth"
       offset_points="3,4.9921382"
       linejoin_type="extrp_arc"
       miter_limit="4"
       not_jump="false"
       sort_points="true"
       message="&lt;b&gt;Ctrl + click&lt;/b&gt; on existing node and move it" />
    <linearGradient
       id="swatch1"
       inkscape:swatch="solid">
      <stop
         style="stop-color:#000000;stop-opacity:1;"
         offset="0"
         id="stop1" />
    </linearGradient>
    <inkscape:path-effect
       effect="fill_between_many"
       method="bsplinespiro"
       autoreverse="false"
       close="false"
       join="false"
       linkedpaths="#path5,0,1"
       id="path-effect6" />
  </defs>
  <g
     inkscape:label="Layer 1"
     inkscape:groupmode="layer"
     id="layer1">
    <path
       id="rect1"
       style="fill:#fff000;fill-opacity:1;stroke:#000000;stroke-width:1.165;stroke-dasharray:none;stroke-opacity:1"
       d="m 42.765089,89.587058 c -1.942172,0 -3.505729,1.56356 -3.505729,3.50573 v 78.724392 c 0,1.94217 1.563557,3.50573 3.505729,3.50573 h 20.732068 v 38.34598 l 37.642133,-38.34598 h 67.74005 c 1.94217,0 3.50573,-1.56356 3.50573,-3.50573 V 93.092788 c 0,-1.94217 -1.56356,-3.50573 -3.50573,-3.50573 z" />
    <ellipse
       style="fill:#000000;fill-opacity:1;stroke:#000000;stroke-width:1.165;stroke-dasharray:none;stroke-opacity:1"
       id="path1"
       cx="86.636703"
       cy="110.45583"
       rx="7.0542026"
       ry="6.8733253" />
    <ellipse
       style="fill:#000000;fill-opacity:1;stroke:#000000;stroke-width:1.165;stroke-dasharray:none;stroke-opacity:1"
       id="path1-9"
       cx="105.82919"
       cy="118.66647"
       rx="7.0542026"
       ry="6.8733253" />
    <ellipse
       style="fill:#000000;fill-opacity:1;stroke:#000000;stroke-width:1.16498;stroke-dasharray:none;stroke-opacity:1"
       id="path1-9-7"
       cx="124.6365"
       cy="110.45583"
       rx="7.0540075"
       ry="6.873333" />
    <path
       id="path2"
       style="fill:#000000;fill-opacity:1;stroke:#000000;stroke-width:1.0842;stroke-dasharray:none;stroke-opacity:1"
       d="m 105.86866,134.92327 a 12.34004,21.223996 0 0 0 -12.339854,21.22392 12.34004,21.223996 0 0 0 0.660928,6.71203 h 23.357836 a 12.34004,21.223996 0 0 0 0.66139,-6.71203 12.34004,21.223996 0 0 0 -12.3403,-21.22392 z" />
    <path
       id="path2-7-5"
       style="fill:#000000;fill-opacity:1;stroke:#000000;stroke-width:1.0842;stroke-dasharray:none;stroke-opacity:1"
       d="m 123.44699,121.5421 a 12.34004,21.223996 0 0 0 -10.76627,10.92182 12.34004,21.223996 0 0 1 9.78493,17.01446 h 12.66021 a 12.34004,21.223996 0 0 0 0.66146,-6.71225 12.34004,21.223996 0 0 0 -12.34033,-21.22403 z" />
    <path
       id="path2-7-5-8"
       style="fill:#000000;fill-opacity:1;stroke:#000000;stroke-width:1.0842;stroke-dasharray:none;stroke-opacity:1"
       d="m 86.88243,121.5421 a 12.34004,21.223996 0 0 1 10.76627,10.92182 12.34004,21.223996 0 0 0 -9.78493,17.01446 H 75.20356 A 12.34004,21.223996 0 0 1 74.5421,142.76613 12.34004,21.223996 0 0 1 86.88243,121.5421 Z" />
  </g>
</svg>
